Motion_pl04
version=1
nRows=8
nColumns=43
inDegrees=yes
endheader
time	pelvis_tilt	pelvis_list	pelvis_rotation	pelvis_tx	pelvis_ty	pelvis_tz	hip_flexion_r	hip_adduction_r	hip_rotation_r	knee_angle_r	ankle_angle_r	subtalar_angle_r	mtp_angle_r	hip_flexion_l	hip_adduction_l	hip_rotation_l	knee_angle_l	ankle_angle_l	subtalar_angle_l	mtp_angle_l	lumbar_extension	lumbar_bending	lumbar_rotation	neck_flexion	neck_lateral_bending	neck_rotation	arm_flex_r	arm_add_r	arm_rot_r	elbow_flex_r	pro_sup_r	wrist_flex_r	wrist_dev_r	hand_finger_flex_r	arm_flex_l	arm_add_l	arm_rot_l	elbow_flex_l	pro_sup_l	wrist_flex_l	wrist_dev_l	hand_finger_flex_l
      0.00250000	      3.44392550	    -12.62379293	     93.68351529	     -0.01337812	      2.05323815	      1.68791890	     22.37000809	     -0.75547993	      5.25969294	    -23.95231330	      5.09288071	      1.76121684	      0.98302784	     24.30943347	     -6.88141330	      5.08174775	    -26.52318619	     13.44232096	      2.79477987	      3.84374436	    -19.56174644	      2.96098301	     -1.18314325	      5.25035566	      5.59808797	    -11.11808449	     21.96645032	    -31.41508980	    -30.45907386	     54.19523075	    134.28594129	    -19.59167074	      1.53814292	    -13.88930431	     16.22217590	    -31.22742362	    -30.08101892	     58.45268281	    129.24290102	    -19.97554766	      2.61147810	     18.36060880
      0.00500000	      3.44288859	    -12.62366877	     93.68384087	     -0.01340803	      2.05319658	      1.68790988	     22.37026382	     -0.75444104	      5.25939770	    -23.95193861	      5.09305565	      1.76115315	      0.98303435	     24.30949211	     -6.88141419	      5.08166266	    -26.52318569	     13.44206566	      2.79479028	      3.84372847	    -19.56212798	      2.96083063	     -1.18290645	      5.25011297	      5.59793460	    -11.11804017	     21.96642614	    -31.41508531	    -30.45903851	     54.19534557	    134.28599770	    -19.59173307	      1.53810220	    -13.88931039	     16.22215505	    -31.22742542	    -30.08097291	     58.45265930	    129.24283085	    -19.97564503	      2.61143121	     18.36077782
      0.00750000	      3.44289410	    -12.62414763	     93.68412059	     -0.01341260	      2.05315867	      1.68791028	     22.37012919	     -0.75414275	      5.25927546	    -23.95181224	      5.09321755	      1.76112334	      0.98304088	     24.30955252	     -6.88128769	      5.08155775	    -26.52318524	     13.44181695	      2.79480063	      3.84371316	    -19.56274223	      2.96061749	     -1.18262960	      5.24979072	      5.59778401	    -11.11797008	     21.96642563	    -31.41512395	    -30.45903551	     54.19550510	    134.28605537	    -19.59182151	      1.53806676	    -13.88932972	     16.22212680	    -31.22742365	    -30.08093511	     58.45266377	    129.24276389	    -19.97575447	      2.61137598	     18.36094209
      0.01000000	      3.44255009	    -12.62462349	     93.68453814	     -0.01342881	      2.05311670	      1.68790365	     22.37023651	     -0.75343973	      5.25904233	    -23.95156898	      5.09337133	      1.76106814	      0.98304744	     24.30964688	     -6.88111490	      5.08144215	    -26.52317201	     13.44157545	      2.79480739	      3.84369815	    -19.56361744	      2.96031779	     -1.18226342	      5.24938784	      5.59763396	    -11.11787348	     21.96644676	    -31.41516825	    -30.45904640	     54.19571094	    134.28611455	    -19.59193102	      1.53803396	    -13.88935999	     16.22210234	    -31.22744263	    -30.08091848	     58.45269898	    129.24269904	    -19.97587881	      2.61131284	     18.36110065
      0.01250000	      3.44294909	    -12.62575546	     93.68494838	     -0.01343038	      2.05307597	      1.68790456	     22.36995391	     -0.75325795	      5.25893056	    -23.95156124	      5.09352193	      1.76103687	      0.98305405	     24.30974890	     -6.88086360	      5.08131115	    -26.52315591	     13.44134091	      2.79481217	      3.84368360	    -19.56476400	      2.95995130	     -1.18182952	      5.24890592	      5.59748660	    -11.11775052	     21.96647435	    -31.41521648	    -30.45907305	     54.19595606	    134.28617436	    -19.59205980	      1.53800558	    -13.88939951	     16.22207824	    -31.22747165	    -30.08091937	     58.45276517	    129.24263545	    -19.97601727	      2.61124105	     18.36125405
      0.01500000	      3.51542475	    -12.48588552	     93.75800002	     -0.01343714	      2.05320977	      1.68827974	     22.30610999	     -0.69299151	      5.15512983	    -24.05743989	      5.38948281	      1.77628644	      1.00384191	     24.32313201	     -6.95321721	      4.90123253	    -26.71290337	     12.83901343	      2.77034554	      3.81079281	    -19.82616847	      3.05700942	     -1.00298095	      4.48644212	      5.35175921	    -10.81165483	     21.59584048	    -31.50922861	    -30.74799330	     54.69600017	    134.41847917	    -19.99395692	      1.60008113	    -14.00850277	     16.28554475	    -31.14596280	    -29.94663886	     58.72048939	    129.04925141	    -20.38601609	      2.38244944	     18.85709953
      0.01750000	      3.51553733	    -12.48675459	     93.75797833	     -0.01344120	      2.05317443	      1.68828643	     22.30557387	     -0.69313958	      5.15524130	    -24.05733745	      5.38955269	      1.77633279	      1.00384811	     24.32327262	     -6.95337707	      4.90126699	    -26.71276826	     12.83903656	      2.77031334	      3.81079983	    -19.82665292	      3.05692016	     -1.00292558	      4.48639897	      5.35174815	    -10.81163640	     21.59584879	    -31.50892569	    -30.74788020	     54.69605495	    134.41850757	    -19.99397305	      1.60010056	    -14.00850565	     16.28571533	    -31.14584758	    -29.94650900	     58.72043332	    129.04920254	    -20.38609890	      2.38240457	     18.85724611
      0.02000000	      3.51615057	    -12.48780028	     93.75807777	     -0.01343974	      2.05313196	      1.68828407	     22.30514904	     -0.69367100	      5.15546138	    -24.05720312	      5.38962185	      1.77640501	      1.00385435	     24.32343320	     -6.95348701	      4.90128848	    -26.71262298	     12.83906593	      2.77027861	      3.81080717	    -19.82747913	      3.05675289	     -1.00275446	      4.48627512	      5.35173668	    -10.81159109	     21.59585375	    -31.50857507	    -30.74775594	     54.69614764	    134.41853634	    -19.99399824	      1.60012071	    -14.00851199	     16.28589214	    -31.14575635	    -29.94640777	     58.72040742	    129.04915229	    -20.38619823	      2.38235117	     18.85738656
